<svg xmlns="http://www.w3.org/2000/svg"  viewBox="0 0 64 64"><defs fill="#55534E" /><path  d="m17,51.5c0,2.49-2.01,4.5-4.5,4.5s-4.5-2.01-4.5-4.5,2.01-4.5,4.5-4.5,4.5,2.01,4.5,4.5Zm41-15.5c0,7.73-6.27,14-14,14-1,0-1.97-.11-2.91-.31-2.55,2.65-6.12,4.31-10.09,4.31-6.35,0-11.7-4.23-13.42-10.02-6.43-.22-11.58-5.49-11.58-11.98,0-4.86,2.89-9.03,7.05-10.92.48-8.41,7.43-15.08,15.95-15.08,4.43,0,8.43,1.8,11.33,4.7,1.14-.45,2.37-.7,3.67-.7,5.52,0,10,4.48,10,10,0,1.83-.5,3.53-1.35,5,3.25,2.56,5.35,6.53,5.35,11Zm-22,3h-8v6h8v-6Zm7-14.5c0-5.62-4.21-9.5-11-9.5s-11,3.88-11,10h6c0-2.88,1.71-4,4.75-4s4.75,1.12,4.75,3.5c0,3.69-7.5,3.5-7.5,10.5h6c0-3.69,8-3.5,8-10.5Z" fill="#55534E" /></svg>